<?xml version="1.0" encoding="UTF-8" standalone="no"?>
<!-- Created with Inkscape (http://www.inkscape.org/) -->

<svg
   xmlns:dc="http://purl.org/dc/elements/1.1/"
   xmlns:cc="http://creativecommons.org/ns#"
   xmlns:rdf="http://www.w3.org/1999/02/22-rdf-syntax-ns#"
   xmlns:svg="http://www.w3.org/2000/svg"
   xmlns="http://www.w3.org/2000/svg"
   xmlns:inkscape="http://www.inkscape.org/namespaces/inkscape"
   version="1.1"
   width="1311.2854"
   height="226.42093"
   id="svg11263">
  <defs
     id="defs11265">
    <inkscape:path-effect
       effect="spiro"
       id="path-effect6684" />
    <inkscape:path-effect
       effect="spiro"
       id="path-effect6679" />
    <inkscape:path-effect
       effect="spiro"
       id="path-effect5988" />
    <inkscape:path-effect
       effect="spiro"
       id="path-effect5990" />
  </defs>
  <metadata
     id="metadata11268">
    <rdf:RDF>
      <cc:Work
         rdf:about="">
        <dc:format>image/svg+xml</dc:format>
        <dc:type
           rdf:resource="http://purl.org/dc/dcmitype/StillImage" />
        <dc:title></dc:title>
      </cc:Work>
    </rdf:RDF>
  </metadata>
  <g
     transform="translate(295.64271,-267.72299)"
     id="layer1">
    <text
       x="838.98676"
       y="476.67661"
       id="text5972"
       xml:space="preserve"
       style="font-size:258.38131714px;font-style:normal;font-variant:normal;font-weight:normal;font-stretch:normal;line-height:125%;letter-spacing:0px;word-spacing:0px;fill:#ffffff;fill-opacity:1;stroke:none;font-family:Helvetica;-inkscape-font-specification:Helvetica"><tspan
         x="838.98676"
         y="476.67661"
         id="tspan5974"
         style="font-style:normal;font-variant:normal;font-weight:normal;font-stretch:normal;fill:#ffffff;fill-opacity:1;font-family:Orbitron;-inkscape-font-specification:Orbitron">n</tspan></text>
    <text
       x="-290.81033"
       y="476.67661"
       id="text5976"
       xml:space="preserve"
       style="font-size:258.38131714px;font-style:normal;font-variant:normal;font-weight:normal;font-stretch:normal;line-height:125%;letter-spacing:0px;word-spacing:0px;fill:#ffffff;fill-opacity:1;stroke:none;font-family:Helvetica;-inkscape-font-specification:Helvetica"><tspan
         x="-290.81033"
         y="476.67661"
         id="tspan5978"
         style="font-style:normal;font-variant:normal;font-weight:normal;font-stretch:normal;fill:#ffffff;fill-opacity:1;font-family:Orbitron;-inkscape-font-specification:Orbitron">Tether</tspan></text>
    <path
       d="m 725.14653,465.76319 c -13.21541,-7.25358 -23.94274,-18.9472 -30.03243,-32.73766 -6.0897,-13.79047 -7.50559,-29.5959 -3.96397,-44.24917 3.79311,-15.69376 13.29425,-29.97013 26.40284,-39.39597 13.10859,-9.42584 29.72984,-13.89065 45.7803,-12.14008 16.05046,1.75058 31.36791,9.73541 41.87166,21.99727 10.50375,12.26185 16.04851,28.69009 14.96268,44.79918 -0.93225,13.83069 -6.70062,27.28828 -16.07408,37.50079 -9.37345,10.21251 -22.28841,17.11067 -35.9887,19.22234 l 1.1476,17.7868 c 16.76279,-2.84067 32.50519,-11.38897 44.01617,-23.90127 11.51099,-12.5123 18.71959,-28.91147 20.15545,-45.85251 1.43586,-16.94104 -2.90988,-34.31951 -12.15081,-48.59066 -9.24092,-14.27115 -23.32005,-25.34701 -39.36563,-30.96839 -12.70372,-4.4506 -26.58676,-5.5069 -39.80692,-2.9732 -13.22016,2.53371 -25.74181,8.65721 -35.82103,17.57918 -10.07923,8.92198 -17.68355,20.62263 -21.68899,33.47365 -4.00545,12.85103 -4.39352,26.81633 -1.05254,39.8559 5.48183,21.39515 21.31232,39.88334 41.6084,48.5938"
       id="path5980"
       style="fill:#ffffff;stroke:none" />
    <path
       d="m 1158.1399,-6612.7612 a 8.586297,8.586297 0 1 1 -17.1726,0 8.586297,8.586297 0 1 1 17.1726,0 z"
       transform="matrix(1.6991729,0,0,1.6991729,-1195.0234,11705.779)"
       id="path5984"
       style="fill:#ffffff;fill-opacity:1;stroke:none" />
    <rect
       width="17.270994"
       height="17.270994"
       x="810.02118"
       y="-262.68082"
       transform="matrix(0.70710678,0.70710678,-0.70710678,0.70710678,0,0)"
       id="rect5986"
       style="fill:#ffffff;fill-opacity:1;stroke:none" />
    <path
       d="m 758.51503,399.70156 0,69.99383"
       id="path5982"
       style="fill:#ffffff;stroke:#ffffff;stroke-width:3.73574924;stroke-linecap:butt;stroke-linejoin:miter;stroke-miterlimit:4;stroke-opacity:1;stroke-dasharray:none" />
    <g
       id="text6115"
       style="font-size:258.38131714px;font-style:normal;font-variant:normal;font-weight:normal;font-stretch:normal;line-height:125%;letter-spacing:0px;word-spacing:0px;fill:#ffffff;fill-opacity:1;stroke:none;font-family:Helvetica;-inkscape-font-specification:Helvetica">
      <path
         d="m 974.37857,326.81544 c 8.61256,1.5e-4 15.93336,3.10072 21.96241,9.30173 6.20102,6.02903 9.30152,13.34983 9.30172,21.96241 l 0,118.59703 -21.18726,0 0,-118.59703 c -1.5e-4,-2.75595 -1.03367,-5.08137 -3.10058,-6.97629 -1.89494,-2.06693 -4.22037,-3.10045 -6.97629,-3.10058 l -89.9167,0 c -2.75611,1.3e-4 -5.16767,1.03365 -7.23468,3.10058 -2.06709,1.89492 -3.10061,4.22034 -3.10058,6.97629 l 0,118.59703 -21.18726,0 0,-149.86117 121.43922,0"
         id="path11339"
         style="fill:#ffffff;font-family:Orbitron;-inkscape-font-specification:Orbitron" />
    </g>
    <g
       id="text6119"
       style="font-size:258.38131714px;font-style:normal;font-variant:normal;font-weight:normal;font-stretch:normal;line-height:125%;letter-spacing:0px;word-spacing:0px;fill:#ffffff;fill-opacity:1;stroke:none;font-family:Helvetica;-inkscape-font-specification:Helvetica">
      <path
         d="m -285.64271,290.64206 186.034551,0 0,20.92888 -82.423641,0 0,165.10567 -20.92889,0 0,-165.10567 -82.68202,0 0,-20.92888"
         id="path11342"
         style="fill:#ffffff;font-family:Orbitron;-inkscape-font-specification:Orbitron" />
      <path
         d="m 39.857202,326.81544 c 8.784821,1.5e-4 16.191745,3.10072 22.220793,9.30173 6.200989,6.02903 9.301561,13.34983 9.301727,21.96241 l 0,54.26008 -131.51609,0 0,33.07281 c -3.5e-5,2.75609 0.947363,5.16765 2.842194,7.23467 2.067012,1.89482 4.478568,2.84222 7.234677,2.8422 l 121.439219,0 0,21.18727 -121.439219,0 c -8.612746,0 -16.01967,-3.01445 -22.220793,-9.04335 -6.028914,-6.20114 -9.043359,-13.60806 -9.043346,-22.22079 l 0,-87.33289 c -1.3e-5,-8.61258 3.014432,-15.93338 9.043346,-21.96241 6.201123,-6.20101 13.608047,-9.30158 22.220793,-9.30173 l 89.916699,0 m -99.99357,64.33695 110.070441,0 0,-33.07281 c -1.45e-4,-2.75595 -1.033669,-5.08137 -3.100576,-6.97629 -1.894936,-2.06693 -4.220365,-3.10045 -6.976295,-3.10058 l -89.916699,0 c -2.756109,1.3e-4 -5.167665,1.03365 -7.234677,3.10058 -1.894831,1.89492 -2.842229,4.22034 -2.842194,6.97629 l 0,33.07281"
         id="path11344"
         style="fill:#ffffff;font-family:Orbitron;-inkscape-font-specification:Orbitron" />
      <path
         d="m 183.88054,348.00271 -64.85371,0 0,97.40976 c -3e-5,2.75609 0.94737,5.16765 2.8422,7.23467 2.06701,1.89482 4.47856,2.84222 7.23467,2.8422 l 54.77684,0 0,21.18727 -54.77684,0 c -8.785,0 -16.19192,-3.01445 -22.22079,-9.04335 -6.02891,-6.20114 -9.043359,-13.60806 -9.043345,-22.22079 l 0,-167.68948 21.187265,0 0,49.09245 64.85371,0 0,21.18727"
         id="path11346"
         style="fill:#ffffff;font-family:Orbitron;-inkscape-font-specification:Orbitron" />
      <path
         d="m 327.02783,326.81544 c 8.61256,1.5e-4 15.93336,3.10072 21.96241,9.30173 6.20099,6.02903 9.30156,13.34983 9.30173,21.96241 l 0,118.59703 -21.18727,0 0,-118.59703 c -1.5e-4,-2.75595 -1.03367,-5.08137 -3.10058,-6.97629 -1.89493,-2.06693 -4.22036,-3.10045 -6.97629,-3.10058 l -89.9167,0 c -2.75611,1.3e-4 -5.16767,1.03365 -7.23468,3.10058 -2.06708,1.89492 -3.10061,4.22034 -3.10057,6.97629 l 0,118.59703 -21.18727,0 0,-198.95362 21.18727,0 0,49.09245 100.25195,0"
         id="path11348"
         style="fill:#ffffff;font-family:Orbitron;-inkscape-font-specification:Orbitron" />
      <path
         d="m 498.58494,326.81544 c 8.78482,1.5e-4 16.19174,3.10072 22.22079,9.30173 6.20099,6.02903 9.30156,13.34983 9.30173,21.96241 l 0,54.26008 -131.51609,0 0,33.07281 c -4e-5,2.75609 0.94736,5.16765 2.84219,7.23467 2.06701,1.89482 4.47857,2.84222 7.23468,2.8422 l 121.43922,0 0,21.18727 -121.43922,0 c -8.61275,0 -16.01967,-3.01445 -22.22079,-9.04335 -6.02892,-6.20114 -9.04336,-13.60806 -9.04335,-22.22079 l 0,-87.33289 c -1e-5,-8.61258 3.01443,-15.93338 9.04335,-21.96241 6.20112,-6.20101 13.60804,-9.30158 22.22079,-9.30173 l 89.9167,0 m -99.99357,64.33695 110.07044,0 0,-33.07281 c -1.4e-4,-2.75595 -1.03367,-5.08137 -3.10058,-6.97629 -1.89493,-2.06693 -4.22036,-3.10045 -6.97629,-3.10058 l -89.9167,0 c -2.75611,1.3e-4 -5.16767,1.03365 -7.23468,3.10058 -1.89483,1.89492 -2.84223,4.22034 -2.84219,6.97629 l 0,33.07281"
         id="path11350"
         style="fill:#ffffff;font-family:Orbitron;-inkscape-font-specification:Orbitron" />
      <path
         d="m 586.05919,326.81544 84.23231,0 0,21.18727 -84.23231,0 c -2.75611,1.3e-4 -5.16767,1.03365 -7.23468,3.10058 -1.89483,1.89492 -2.84223,4.22034 -2.84219,6.97629 l 0,118.59703 -21.18727,0 0,-118.59703 c -10e-6,-8.61258 3.01443,-15.93338 9.04335,-21.96241 6.20112,-6.20101 13.60804,-9.30158 22.22079,-9.30173"
         id="path11352"
         style="fill:#ffffff;font-family:Orbitron;-inkscape-font-specification:Orbitron" />
    </g>
    <path
       d="m 725.14653,465.76319 c -13.21541,-7.25358 -23.94274,-18.9472 -30.03243,-32.73766 -6.0897,-13.79047 -7.50559,-29.5959 -3.96397,-44.24917 3.79311,-15.69376 13.29425,-29.97013 26.40284,-39.39597 13.10859,-9.42584 29.72984,-13.89065 45.7803,-12.14008 16.05046,1.75058 31.36791,9.73541 41.87166,21.99727 10.50375,12.26185 16.04851,28.69009 14.96268,44.79918 -0.93225,13.83069 -6.70062,27.28828 -16.07408,37.50079 -9.37345,10.21251 -22.28841,17.11067 -35.9887,19.22234 l 1.1476,17.7868 c 16.76279,-2.84067 32.50519,-11.38897 44.01617,-23.90127 11.51099,-12.5123 18.71959,-28.91147 20.15545,-45.85251 1.43586,-16.94104 -2.90988,-34.31951 -12.15081,-48.59066 -9.24092,-14.27115 -23.32005,-25.34701 -39.36563,-30.96839 -12.70372,-4.4506 -26.58676,-5.5069 -39.80692,-2.9732 -13.22016,2.53371 -25.74181,8.65721 -35.82103,17.57918 -10.07923,8.92198 -17.68355,20.62263 -21.68899,33.47365 -4.00545,12.85103 -4.39352,26.81633 -1.05254,39.8559 5.48183,21.39515 21.31232,39.88334 41.6084,48.5938"
       id="path6123"
       style="fill:#ffffff;stroke:none" />
    <path
       d="m 1158.1399,-6612.7612 a 8.586297,8.586297 0 1 1 -17.1726,0 8.586297,8.586297 0 1 1 17.1726,0 z"
       transform="matrix(1.6991729,0,0,1.6991729,-1195.0234,11705.779)"
       id="path6125"
       style="fill:#ffffff;fill-opacity:1;stroke:none" />
    <rect
       width="17.270994"
       height="17.270994"
       x="810.02118"
       y="-262.68082"
       transform="matrix(0.70710678,0.70710678,-0.70710678,0.70710678,0,0)"
       id="rect6127"
       style="fill:#ffffff;fill-opacity:1;stroke:none" />
    <path
       d="m 756.65625,399.6875 0,70 3.71875,0 0,-70 -3.71875,0 z"
       id="path6129"
       style="font-size:medium;font-style:normal;font-variant:normal;font-weight:normal;font-stretch:normal;text-indent:0;text-align:start;text-decoration:none;line-height:normal;letter-spacing:normal;word-spacing:normal;text-transform:none;direction:ltr;block-progression:tb;writing-mode:lr-tb;text-anchor:start;baseline-shift:baseline;color:#000000;fill:#ffffff;fill-opacity:1;fill-rule:nonzero;stroke:none;stroke-width:3.73574924;marker:none;visibility:visible;display:inline;overflow:visible;enable-background:accumulate;font-family:Sans;-inkscape-font-specification:Sans" />
  </g>
</svg>
